<svg width="128" height="128" viewBox="0 0 128 128" fill="none" xmlns="http://www.w3.org/2000/svg">
<path d="M128 0H0V128H128V0Z" fill="white"/>
<path d="M12.48 8H8V12.48H12.48V8Z" fill="black"/>
<path d="M16.96 8H12.48V12.48H16.96V8Z" fill="black"/>
<path d="M21.44 8H16.96V12.48H21.44V8Z" fill="black"/>
<path d="M25.92 8H21.44V12.48H25.92V8Z" fill="black"/>
<path d="M30.4 8H25.92V12.48H30.4V8Z" fill="black"/>
<path d="M34.88 8H30.4V12.48H34.88V8Z" fill="black"/>
<path d="M39.36 8H34.88V12.48H39.36V8Z" fill="black"/>
<path d="M48.32 8H43.84V12.48H48.32V8Z" fill="black"/>
<path d="M52.8 8H48.32V12.48H52.8V8Z" fill="black"/>
<path d="M57.28 8H52.8V12.48H57.28V8Z" fill="black"/>
<path d="M66.24 8H61.76V12.48H66.24V8Z" fill="black"/>
<path d="M75.2 8H70.72V12.48H75.2V8Z" fill="black"/>
<path d="M84.16 8H79.68V12.48H84.16V8Z" fill="black"/>
<path d="M93.12 8H88.64V12.48H93.12V8Z" fill="black"/>
<path d="M97.6 8H93.12V12.48H97.6V8Z" fill="black"/>
<path d="M102.08 8H97.6V12.48H102.08V8Z" fill="black"/>
<path d="M106.56 8H102.08V12.48H106.56V8Z" fill="black"/>
<path d="M111.04 8H106.56V12.48H111.04V8Z" fill="black"/>
<path d="M115.52 8H111.04V12.48H115.52V8Z" fill="black"/>
<path d="M120 8H115.52V12.48H120V8Z" fill="black"/>
<path d="M12.48 12.48H8V16.96H12.48V12.48Z" fill="black"/>
<path d="M39.36 12.48H34.88L34.88 16.96H39.36V12.48Z" fill="black"/>
<path d="M52.8 12.48H48.32V16.96H52.8V12.48Z" fill="black"/>
<path d="M66.24 12.48H61.76V16.96H66.24V12.48Z" fill="black"/>
<path d="M70.72 12.48H66.24V16.96H70.72V12.48Z" fill="black"/>
<path d="M75.2 12.48H70.72V16.96H75.2V12.48Z" fill="black"/>
<path d="M84.16 12.48H79.68V16.96H84.16V12.48Z" fill="black"/>
<path d="M93.12 12.48H88.64V16.96H93.12V12.48Z" fill="black"/>
<path d="M120 12.48H115.52V16.96H120V12.48Z" fill="black"/>
<path d="M12.48 16.96H8V21.44H12.48V16.96Z" fill="black"/>
<path d="M21.44 16.96H16.96V21.44H21.44V16.96Z" fill="black"/>
<path d="M25.92 16.96H21.44V21.44H25.92V16.96Z" fill="black"/>
<path d="M30.4 16.96H25.92V21.44H30.4V16.96Z" fill="black"/>
<path d="M39.36 16.96H34.88V21.44H39.36V16.96Z" fill="black"/>
<path d="M48.32 16.96H43.84V21.44H48.32V16.96Z" fill="black"/>
<path d="M61.76 16.96H57.28V21.44H61.76V16.96Z" fill="black"/>
<path d="M66.24 16.96H61.76V21.44H66.24V16.96Z" fill="black"/>
<path d="M75.2 16.96H70.72V21.44H75.2V16.96Z" fill="black"/>
<path d="M84.16 16.96H79.68V21.44H84.16V16.96Z" fill="black"/>
<path d="M93.12 16.96H88.64V21.44H93.12V16.96Z" fill="black"/>
<path d="M102.08 16.96H97.6V21.44H102.08V16.96Z" fill="black"/>
<path d="M106.56 16.96H102.08V21.44H106.56V16.96Z" fill="black"/>
<path d="M111.04 16.96H106.56V21.44H111.04V16.96Z" fill="black"/>
<path d="M120 16.96H115.52V21.44H120V16.96Z" fill="black"/>
<path d="M12.48 21.44H8V25.92H12.48V21.44Z" fill="black"/>
<path d="M21.44 21.44H16.96V25.92H21.44V21.44Z" fill="black"/>
<path d="M25.92 21.44H21.44V25.92H25.92V21.44Z" fill="black"/>
<path d="M30.4 21.44H25.92V25.92H30.4V21.44Z" fill="black"/>
<path d="M39.36 21.44H34.88V25.92H39.36V21.44Z" fill="black"/>
<path d="M57.28 21.44H52.8V25.92H57.28V21.44Z" fill="black"/>
<path d="M70.72 21.44H66.24V25.92H70.72V21.44Z" fill="black"/>
<path d="M79.68 21.44H75.2L75.2 25.92H79.68V21.44Z" fill="black"/>
<path d="M93.12 21.44H88.64V25.92H93.12V21.44Z" fill="black"/>
<path d="M102.08 21.44H97.6V25.92H102.08V21.44Z" fill="black"/>
<path d="M106.56 21.44H102.08V25.92H106.56V21.44Z" fill="black"/>
<path d="M111.04 21.44H106.56V25.92H111.04V21.44Z" fill="black"/>
<path d="M120 21.44H115.52V25.92H120V21.44Z" fill="black"/>
<path d="M12.48 25.92H8V30.4H12.48V25.92Z" fill="black"/>
<path d="M21.44 25.92H16.96V30.4H21.44V25.92Z" fill="black"/>
<path d="M25.92 25.92H21.44V30.4H25.92V25.92Z" fill="black"/>
<path d="M30.4 25.92H25.92V30.4H30.4V25.92Z" fill="black"/>
<path d="M39.36 25.92H34.88V30.4H39.36V25.92Z" fill="black"/>
<path d="M61.76 25.92H57.28V30.4H61.76V25.92Z" fill="black"/>
<path d="M75.2 25.92H70.72V30.4H75.2L75.2 25.92Z" fill="black"/>
<path d="M79.68 25.92H75.2L75.2 30.4H79.68V25.92Z" fill="black"/>
<path d="M84.16 25.92H79.68V30.4H84.16V25.92Z" fill="black"/>
<path d="M93.12 25.92H88.64V30.4H93.12V25.92Z" fill="black"/>
<path d="M102.08 25.92H97.6V30.4H102.08V25.92Z" fill="black"/>
<path d="M106.56 25.92H102.08V30.4H106.56V25.92Z" fill="black"/>
<path d="M111.04 25.92H106.56V30.4H111.04V25.92Z" fill="black"/>
<path d="M120 25.92H115.52V30.4H120V25.92Z" fill="black"/>
<path d="M12.48 30.4H8V34.88H12.48V30.4Z" fill="black"/>
<path d="M39.36 30.4H34.88V34.88H39.36V30.4Z" fill="black"/>
<path d="M52.8 30.4H48.32V34.88H52.8V30.4Z" fill="black"/>
<path d="M57.28 30.4H52.8V34.88H57.28V30.4Z" fill="black"/>
<path d="M66.24 30.4H61.76V34.88H66.24V30.4Z" fill="black"/>
<path d="M70.72 30.4H66.24V34.88H70.72V30.4Z" fill="black"/>
<path d="M84.16 30.4H79.68V34.88H84.16V30.4Z" fill="black"/>
<path d="M93.12 30.4H88.64V34.88H93.12V30.4Z" fill="black"/>
<path d="M120 30.4H115.52V34.88H120V30.4Z" fill="black"/>
<path d="M12.48 34.88H8V39.36H12.48V34.88Z" fill="black"/>
<path d="M16.96 34.88L12.48 34.88V39.36H16.96V34.88Z" fill="black"/>
<path d="M21.44 34.88H16.96V39.36H21.44V34.88Z" fill="black"/>
<path d="M25.92 34.88H21.44V39.36H25.92V34.88Z" fill="black"/>
<path d="M30.4 34.88H25.92V39.36H30.4V34.88Z" fill="black"/>
<path d="M34.88 34.88L30.4 34.88V39.36H34.88L34.88 34.88Z" fill="black"/>
<path d="M39.36 34.88H34.88L34.88 39.36H39.36V34.88Z" fill="black"/>
<path d="M48.32 34.88L43.84 34.88V39.36H48.32V34.88Z" fill="black"/>
<path d="M57.28 34.88H52.8V39.36H57.28V34.88Z" fill="black"/>
<path d="M66.24 34.88H61.76V39.36H66.24V34.88Z" fill="black"/>
<path d="M75.2 34.88L70.72 34.88V39.36H75.2V34.88Z" fill="black"/>
<path d="M84.16 34.88H79.68V39.36H84.16V34.88Z" fill="black"/>
<path d="M93.12 34.88H88.64V39.36H93.12V34.88Z" fill="black"/>
<path d="M97.6 34.88L93.12 34.88V39.36H97.6V34.88Z" fill="black"/>
<path d="M102.08 34.88H97.6V39.36H102.08V34.88Z" fill="black"/>
<path d="M106.56 34.88H102.08V39.36H106.56V34.88Z" fill="black"/>
<path d="M111.04 34.88H106.56V39.36H111.04V34.88Z" fill="black"/>
<path d="M115.52 34.88L111.04 34.88V39.36H115.52V34.88Z" fill="black"/>
<path d="M120 34.88H115.52V39.36H120V34.88Z" fill="black"/>
<path d="M48.32 39.36H43.84V43.84H48.32V39.36Z" fill="black"/>
<path d="M52.8 39.36H48.32V43.84H52.8V39.36Z" fill="black"/>
<path d="M57.28 39.36H52.8V43.84H57.28V39.36Z" fill="black"/>
<path d="M66.24 39.36H61.76V43.84H66.24V39.36Z" fill="black"/>
<path d="M70.72 39.36H66.24V43.84H70.72V39.36Z" fill="black"/>
<path d="M75.2 39.36H70.72V43.84H75.2V39.36Z" fill="black"/>
<path d="M79.68 39.36H75.2V43.84H79.68V39.36Z" fill="black"/>
<path d="M84.16 39.36H79.68V43.84H84.16V39.36Z" fill="black"/>
<path d="M12.48 43.84H8V48.32H12.48V43.84Z" fill="black"/>
<path d="M21.44 43.84H16.96V48.32H21.44V43.84Z" fill="black"/>
<path d="M34.88 43.84H30.4V48.32H34.88V43.84Z" fill="black"/>
<path d="M39.36 43.84H34.88V48.32H39.36V43.84Z" fill="black"/>
<path d="M52.8 43.84H48.32V48.32H52.8V43.84Z" fill="black"/>
<path d="M57.28 43.84H52.8V48.32H57.28V43.84Z" fill="black"/>
<path d="M61.76 43.84H57.28V48.32H61.76V43.84Z" fill="black"/>
<path d="M66.24 43.84H61.76V48.32H66.24V43.84Z" fill="black"/>
<path d="M70.72 43.84H66.24V48.32H70.72V43.84Z" fill="black"/>
<path d="M75.2 43.84H70.72V48.32H75.2V43.84Z" fill="black"/>
<path d="M88.64 43.84H84.16V48.32H88.64V43.84Z" fill="black"/>
<path d="M93.12 43.84H88.64V48.32H93.12V43.84Z" fill="black"/>
<path d="M111.04 43.84H106.56V48.32H111.04V43.84Z" fill="black"/>
<path d="M120 43.84H115.52V48.32H120V43.84Z" fill="black"/>
<path d="M16.96 48.32H12.48V52.8H16.96V48.32Z" fill="black"/>
<path d="M25.92 48.32H21.44V52.8H25.92V48.32Z" fill="black"/>
<path d="M52.8 48.32H48.32V52.8H52.8V48.32Z" fill="black"/>
<path d="M57.28 48.32H52.8V52.8H57.28V48.32Z" fill="black"/>
<path d="M79.68 48.32H75.2L75.2 52.8H79.68V48.32Z" fill="black"/>
<path d="M88.64 48.32H84.16V52.8H88.64V48.32Z" fill="black"/>
<path d="M93.12 48.32H88.64V52.8H93.12V48.32Z" fill="black"/>
<path d="M97.6 48.32H93.12V52.8H97.6V48.32Z" fill="black"/>
<path d="M102.08 48.32H97.6V52.8H102.08V48.32Z" fill="black"/>
<path d="M111.04 48.32H106.56V52.8H111.04V48.32Z" fill="black"/>
<path d="M115.52 48.32H111.04V52.8H115.52V48.32Z" fill="black"/>
<path d="M21.44 52.8H16.96V57.28H21.44V52.8Z" fill="black"/>
<path d="M30.4 52.8H25.92V57.28H30.4V52.8Z" fill="black"/>
<path d="M34.88 52.8H30.4V57.28H34.88V52.8Z" fill="black"/>
<path d="M39.36 52.8H34.88V57.28H39.36V52.8Z" fill="black"/>
<path d="M48.32 52.8H43.84V57.28H48.32V52.8Z" fill="black"/>
<path d="M61.76 52.8H57.28V57.28H61.76V52.8Z" fill="black"/>
<path d="M79.68 52.8H75.2V57.28H79.68V52.8Z" fill="black"/>
<path d="M84.16 52.8H79.68V57.28H84.16V52.8Z" fill="black"/>
<path d="M88.64 52.8H84.16V57.28H88.64V52.8Z" fill="black"/>
<path d="M111.04 52.8H106.56V57.28H111.04V52.8Z" fill="black"/>
<path d="M115.52 52.8H111.04V57.28H115.52V52.8Z" fill="black"/>
<path d="M12.48 57.28H8V61.76H12.48V57.28Z" fill="black"/>
<path d="M21.44 57.28H16.96V61.76H21.44V57.28Z" fill="black"/>
<path d="M25.92 57.28H21.44V61.76H25.92V57.28Z" fill="black"/>
<path d="M30.4 57.28H25.92V61.76H30.4V57.28Z" fill="black"/>
<path d="M48.32 57.28H43.84V61.76H48.32V57.28Z" fill="black"/>
<path d="M52.8 57.28H48.32V61.76H52.8V57.28Z" fill="black"/>
<path d="M57.28 57.28H52.8V61.76H57.28V57.28Z" fill="black"/>
<path d="M79.68 57.28H75.2V61.76H79.68V57.28Z" fill="black"/>
<path d="M93.12 57.28H88.64V61.76H93.12V57.28Z" fill="black"/>
<path d="M102.08 57.28H97.6V61.76H102.08V57.28Z" fill="black"/>
<path d="M115.52 57.28H111.04V61.76H115.52V57.28Z" fill="black"/>
<path d="M12.48 61.76H8V66.24H12.48V61.76Z" fill="black"/>
<path d="M16.96 61.76H12.48V66.24H16.96V61.76Z" fill="black"/>
<path d="M39.36 61.76H34.88V66.24H39.36V61.76Z" fill="black"/>
<path d="M61.76 61.76H57.28V66.24H61.76V61.76Z" fill="black"/>
<path d="M66.24 61.76H61.76V66.24H66.24V61.76Z" fill="black"/>
<path d="M70.72 61.76H66.24V66.24H70.72V61.76Z" fill="black"/>
<path d="M75.2 61.76H70.72V66.24H75.2L75.2 61.76Z" fill="black"/>
<path d="M79.68 61.76H75.2L75.2 66.24H79.68V61.76Z" fill="black"/>
<path d="M102.08 61.76H97.6V66.24H102.08V61.76Z" fill="black"/>
<path d="M106.56 61.76H102.08V66.24H106.56V61.76Z" fill="black"/>
<path d="M111.04 61.76H106.56V66.24H111.04V61.76Z" fill="black"/>
<path d="M115.52 61.76H111.04V66.24H115.52V61.76Z" fill="black"/>
<path d="M16.96 66.24H12.48V70.72H16.96V66.24Z" fill="black"/>
<path d="M30.4 66.24H25.92V70.72H30.4V66.24Z" fill="black"/>
<path d="M48.32 66.24H43.84V70.72H48.32V66.24Z" fill="black"/>
<path d="M52.8 66.24H48.32V70.72H52.8V66.24Z" fill="black"/>
<path d="M61.76 66.24H57.28V70.72H61.76V66.24Z" fill="black"/>
<path d="M66.24 66.24H61.76V70.72H66.24V66.24Z" fill="black"/>
<path d="M75.2 66.24H70.72V70.72H75.2V66.24Z" fill="black"/>
<path d="M84.16 66.24H79.68V70.72H84.16V66.24Z" fill="black"/>
<path d="M88.64 66.24H84.16V70.72H88.64V66.24Z" fill="black"/>
<path d="M97.6 66.24H93.12V70.72H97.6V66.24Z" fill="black"/>
<path d="M102.08 66.24H97.6V70.72H102.08V66.24Z" fill="black"/>
<path d="M111.04 66.24H106.56V70.72H111.04V66.24Z" fill="black"/>
<path d="M120 66.24H115.52V70.72H120V66.24Z" fill="black"/>
<path d="M16.96 70.72H12.48V75.2H16.96V70.72Z" fill="black"/>
<path d="M21.44 70.72H16.96V75.2H21.44V70.72Z" fill="black"/>
<path d="M25.92 70.72H21.44V75.2H25.92V70.72Z" fill="black"/>
<path d="M30.4 70.72H25.92V75.2H30.4V70.72Z" fill="black"/>
<path d="M39.36 70.72H34.88V75.2H39.36V70.72Z" fill="black"/>
<path d="M43.84 70.72H39.36V75.2H43.84V70.72Z" fill="black"/>
<path d="M48.32 70.72H43.84V75.2H48.32V70.72Z" fill="black"/>
<path d="M52.8 70.72H48.32V75.2H52.8V70.72Z" fill="black"/>
<path d="M75.2 70.72H70.72V75.2H75.2V70.72Z" fill="black"/>
<path d="M79.68 70.72H75.2V75.2H79.68V70.72Z" fill="black"/>
<path d="M84.16 70.72H79.68V75.2H84.16V70.72Z" fill="black"/>
<path d="M88.64 70.72H84.16V75.2H88.64V70.72Z" fill="black"/>
<path d="M111.04 70.72H106.56V75.2H111.04V70.72Z" fill="black"/>
<path d="M115.52 70.72H111.04V75.2H115.52V70.72Z" fill="black"/>
<path d="M120 70.72H115.52V75.2H120V70.72Z" fill="black"/>
<path d="M12.48 75.2L8 75.2V79.68H12.48V75.2Z" fill="black"/>
<path d="M21.44 75.2H16.96V79.68H21.44V75.2Z" fill="black"/>
<path d="M30.4 75.2H25.92V79.68H30.4V75.2Z" fill="black"/>
<path d="M34.88 75.2H30.4V79.68H34.88L34.88 75.2Z" fill="black"/>
<path d="M43.84 75.2H39.36V79.68H43.84V75.2Z" fill="black"/>
<path d="M57.28 75.2L52.8 75.2V79.68H57.28V75.2Z" fill="black"/>
<path d="M66.24 75.2H61.76V79.68H66.24V75.2Z" fill="black"/>
<path d="M79.68 75.2H75.2L75.2 79.68H79.68V75.2Z" fill="black"/>
<path d="M93.12 75.2L88.64 75.2V79.68H93.12V75.2Z" fill="black"/>
<path d="M102.08 75.2H97.6V79.68H102.08V75.2Z" fill="black"/>
<path d="M106.56 75.2L102.08 75.2V79.68H106.56V75.2Z" fill="black"/>
<path d="M111.04 75.2H106.56V79.68H111.04V75.2Z" fill="black"/>
<path d="M12.48 79.68H8V84.16H12.48V79.68Z" fill="black"/>
<path d="M16.96 79.68H12.48V84.16H16.96V79.68Z" fill="black"/>
<path d="M21.44 79.68H16.96V84.16H21.44V79.68Z" fill="black"/>
<path d="M39.36 79.68H34.88L34.88 84.16H39.36V79.68Z" fill="black"/>
<path d="M43.84 79.68H39.36V84.16H43.84V79.68Z" fill="black"/>
<path d="M66.24 79.68H61.76V84.16H66.24V79.68Z" fill="black"/>
<path d="M70.72 79.68H66.24V84.16H70.72V79.68Z" fill="black"/>
<path d="M75.2 79.68H70.72V84.16H75.2L75.2 79.68Z" fill="black"/>
<path d="M79.68 79.68H75.2L75.2 84.16H79.68V79.68Z" fill="black"/>
<path d="M84.16 79.68H79.68V84.16H84.16V79.68Z" fill="black"/>
<path d="M88.64 79.68H84.16V84.16H88.64V79.68Z" fill="black"/>
<path d="M93.12 79.68H88.64V84.16H93.12V79.68Z" fill="black"/>
<path d="M97.6 79.68H93.12V84.16H97.6V79.68Z" fill="black"/>
<path d="M102.08 79.68H97.6V84.16H102.08V79.68Z" fill="black"/>
<path d="M106.56 79.68H102.08V84.16H106.56V79.68Z" fill="black"/>
<path d="M115.52 79.68H111.04V84.16H115.52V79.68Z" fill="black"/>
<path d="M120 79.68H115.52V84.16H120V79.68Z" fill="black"/>
<path d="M75.2 84.16H70.72V88.64H75.2V84.16Z" fill="black"/>
<path d="M79.68 84.16H75.2V88.64H79.68V84.16Z" fill="black"/>
<path d="M84.16 84.16H79.68V88.64H84.16V84.16Z" fill="black"/>
<path d="M102.08 84.16H97.6V88.64H102.08V84.16Z" fill="black"/>
<path d="M106.56 84.16H102.08V88.64H106.56V84.16Z" fill="black"/>
<path d="M111.04 84.16H106.56V88.64H111.04V84.16Z" fill="black"/>
<path d="M115.52 84.16H111.04V88.64H115.52V84.16Z" fill="black"/>
<path d="M120 84.16H115.52V88.64H120V84.16Z" fill="black"/>
<path d="M12.48 88.64H8V93.12H12.48V88.64Z" fill="black"/>
<path d="M16.96 88.64H12.48V93.12H16.96V88.64Z" fill="black"/>
<path d="M21.44 88.64H16.96V93.12H21.44V88.64Z" fill="black"/>
<path d="M25.92 88.64H21.44V93.12H25.92V88.64Z" fill="black"/>
<path d="M30.4 88.64H25.92V93.12H30.4V88.64Z" fill="black"/>
<path d="M34.88 88.64H30.4V93.12H34.88V88.64Z" fill="black"/>
<path d="M39.36 88.64H34.88V93.12H39.36V88.64Z" fill="black"/>
<path d="M52.8 88.64H48.32V93.12H52.8V88.64Z" fill="black"/>
<path d="M66.24 88.64H61.76V93.12H66.24V88.64Z" fill="black"/>
<path d="M70.72 88.64H66.24V93.12H70.72V88.64Z" fill="black"/>
<path d="M84.16 88.64H79.68V93.12H84.16V88.64Z" fill="black"/>
<path d="M93.12 88.64H88.64V93.12H93.12V88.64Z" fill="black"/>
<path d="M102.08 88.64H97.6V93.12H102.08V88.64Z" fill="black"/>
<path d="M115.52 88.64H111.04V93.12H115.52V88.64Z" fill="black"/>
<path d="M12.48 93.12H8V97.6H12.48V93.12Z" fill="black"/>
<path d="M39.36 93.12H34.88L34.88 97.6H39.36V93.12Z" fill="black"/>
<path d="M48.32 93.12H43.84V97.6H48.32V93.12Z" fill="black"/>
<path d="M52.8 93.12H48.32V97.6H52.8V93.12Z" fill="black"/>
<path d="M57.28 93.12H52.8V97.6H57.28V93.12Z" fill="black"/>
<path d="M66.24 93.12H61.76V97.6H66.24V93.12Z" fill="black"/>
<path d="M75.2 93.12H70.72V97.6H75.2V93.12Z" fill="black"/>
<path d="M79.68 93.12H75.2V97.6H79.68V93.12Z" fill="black"/>
<path d="M84.16 93.12H79.68V97.6H84.16V93.12Z" fill="black"/>
<path d="M102.08 93.12H97.6V97.6H102.08V93.12Z" fill="black"/>
<path d="M115.52 93.12H111.04V97.6H115.52V93.12Z" fill="black"/>
<path d="M120 93.12H115.52V97.6H120V93.12Z" fill="black"/>
<path d="M12.48 97.6H8V102.08H12.48V97.6Z" fill="black"/>
<path d="M21.44 97.6H16.96V102.08H21.44V97.6Z" fill="black"/>
<path d="M25.92 97.6H21.44V102.08H25.92V97.6Z" fill="black"/>
<path d="M30.4 97.6H25.92V102.08H30.4V97.6Z" fill="black"/>
<path d="M39.36 97.6H34.88V102.08H39.36V97.6Z" fill="black"/>
<path d="M57.28 97.6H52.8V102.08H57.28V97.6Z" fill="black"/>
<path d="M75.2 97.6H70.72V102.08H75.2V97.6Z" fill="black"/>
<path d="M79.68 97.6H75.2V102.08H79.68V97.6Z" fill="black"/>
<path d="M84.16 97.6H79.68V102.08H84.16V97.6Z" fill="black"/>
<path d="M88.64 97.6H84.16V102.08H88.64V97.6Z" fill="black"/>
<path d="M93.12 97.6H88.64V102.08H93.12V97.6Z" fill="black"/>
<path d="M97.6 97.6H93.12V102.08H97.6V97.6Z" fill="black"/>
<path d="M102.08 97.6H97.6V102.08H102.08V97.6Z" fill="black"/>
<path d="M106.56 97.6H102.08V102.08H106.56V97.6Z" fill="black"/>
<path d="M111.04 97.6H106.56V102.08H111.04V97.6Z" fill="black"/>
<path d="M120 97.6H115.52V102.08H120V97.6Z" fill="black"/>
<path d="M12.48 102.08H8V106.56H12.48V102.08Z" fill="black"/>
<path d="M21.44 102.08H16.96V106.56H21.44V102.08Z" fill="black"/>
<path d="M25.92 102.08H21.44V106.56H25.92V102.08Z" fill="black"/>
<path d="M30.4 102.08H25.92V106.56H30.4V102.08Z" fill="black"/>
<path d="M39.36 102.08H34.88V106.56H39.36V102.08Z" fill="black"/>
<path d="M52.8 102.08H48.32V106.56H52.8V102.08Z" fill="black"/>
<path d="M57.28 102.08H52.8V106.56H57.28V102.08Z" fill="black"/>
<path d="M61.76 102.08H57.28V106.56H61.76V102.08Z" fill="black"/>
<path d="M66.24 102.08H61.76V106.56H66.24V102.08Z" fill="black"/>
<path d="M70.72 102.08H66.24V106.56H70.72V102.08Z" fill="black"/>
<path d="M75.2 102.08H70.72V106.56H75.2V102.08Z" fill="black"/>
<path d="M79.68 102.08H75.2V106.56H79.68V102.08Z" fill="black"/>
<path d="M84.16 102.08H79.68V106.56H84.16V102.08Z" fill="black"/>
<path d="M88.64 102.08H84.16V106.56H88.64V102.08Z" fill="black"/>
<path d="M97.6 102.08H93.12V106.56H97.6V102.08Z" fill="black"/>
<path d="M111.04 102.08H106.56V106.56H111.04V102.08Z" fill="black"/>
<path d="M115.52 102.08H111.04V106.56H115.52V102.08Z" fill="black"/>
<path d="M120 102.08H115.52V106.56H120V102.08Z" fill="black"/>
<path d="M12.48 106.56H8V111.04H12.48V106.56Z" fill="black"/>
<path d="M21.44 106.56H16.96V111.04H21.44V106.56Z" fill="black"/>
<path d="M25.92 106.56H21.44V111.04H25.92V106.56Z" fill="black"/>
<path d="M30.4 106.56H25.92V111.04H30.4V106.56Z" fill="black"/>
<path d="M39.36 106.56H34.88V111.04H39.36V106.56Z" fill="black"/>
<path d="M48.32 106.56H43.84V111.04H48.32V106.56Z" fill="black"/>
<path d="M93.12 106.56H88.64V111.04H93.12V106.56Z" fill="black"/>
<path d="M12.48 111.04H8V115.52H12.48V111.04Z" fill="black"/>
<path d="M39.36 111.04H34.88V115.52H39.36V111.04Z" fill="black"/>
<path d="M61.76 111.04H57.28V115.52H61.76V111.04Z" fill="black"/>
<path d="M84.16 111.04H79.68V115.52H84.16V111.04Z" fill="black"/>
<path d="M88.64 111.04H84.16V115.52H88.64V111.04Z" fill="black"/>
<path d="M97.6 111.04H93.12V115.52H97.6V111.04Z" fill="black"/>
<path d="M111.04 111.04H106.56V115.52H111.04V111.04Z" fill="black"/>
<path d="M12.48 115.52H8V120H12.48V115.52Z" fill="black"/>
<path d="M16.96 115.52H12.48V120H16.96V115.52Z" fill="black"/>
<path d="M21.44 115.52H16.96V120H21.44V115.52Z" fill="black"/>
<path d="M25.92 115.52H21.44V120H25.92V115.52Z" fill="black"/>
<path d="M30.4 115.52H25.92V120H30.4V115.52Z" fill="black"/>
<path d="M34.88 115.52H30.4V120H34.88L34.88 115.52Z" fill="black"/>
<path d="M39.36 115.52H34.88L34.88 120H39.36V115.52Z" fill="black"/>
<path d="M48.32 115.52H43.84V120H48.32V115.52Z" fill="black"/>
<path d="M52.8 115.52H48.32V120H52.8V115.52Z" fill="black"/>
<path d="M57.28 115.52H52.8V120H57.28V115.52Z" fill="black"/>
<path d="M66.24 115.52H61.76V120H66.24V115.52Z" fill="black"/>
<path d="M70.72 115.52H66.24V120H70.72V115.52Z" fill="black"/>
<path d="M75.2 115.52H70.72V120H75.2V115.52Z" fill="black"/>
<path d="M79.68 115.52H75.2V120H79.68V115.52Z" fill="black"/>
<path d="M84.16 115.52H79.68V120H84.16V115.52Z" fill="black"/>
<path d="M88.64 115.52H84.16V120H88.64V115.52Z" fill="black"/>
<path d="M93.12 115.52H88.64V120H93.12V115.52Z" fill="black"/>
<path d="M111.04 115.52H106.56V120H111.04V115.52Z" fill="black"/>
<path d="M120 115.52H115.52V120H120V115.52Z" fill="black"/>
</svg>
